<svg width="32" height="32" viewBox="0 0 32 32" fill="none" xmlns="http://www.w3.org/2000/svg">
  <defs>
    <linearGradient id="faviconGradient" x1="0%" y1="0%" x2="100%" y2="100%">
      <stop offset="0%" style="stop-color:#6366f1;stop-opacity:1" />
      <stop offset="50%" style="stop-color:#8b5cf6;stop-opacity:1" />
      <stop offset="100%" style="stop-color:#a855f7;stop-opacity:1" />
    </linearGradient>
  </defs>
  
  <!-- Background -->
  <rect width="32" height="32" rx="6" fill="url(#faviconGradient)"/>
  
  <!-- Calendar grid pattern -->
  <g opacity="0.3">
    <rect x="6" y="8" width="4" height="4" rx="0.5" fill="white"/>
    <rect x="11" y="8" width="4" height="4" rx="0.5" fill="white"/>
    <rect x="16" y="8" width="4" height="4" rx="0.5" fill="white"/>
    <rect x="6" y="13" width="4" height="4" rx="0.5" fill="white"/>
    <rect x="11" y="13" width="4" height="4" rx="0.5" fill="white"/>
    <rect x="16" y="13" width="4" height="4" rx="0.5" fill="white"/>
  </g>
  
  <!-- Stylized "P" letter -->
  <path d="M 10 7 L 10 19 L 12 19 L 12 15 L 16 15 L 18 13 L 18 9 L 12 9 L 12 11 L 14 11 L 14 13 L 12 13 L 12 7 Z" fill="white"/>
</svg>

